<svg xmlns="http://www.w3.org/2000/svg" viewBox="0 0 16 16" shape-rendering="crispEdges">
  <!-- Row 1: Hat top -->
  <rect x="4" y="1" width="5" height="1" fill="#AC1C00"/>
  <!-- Row 2: Hat brim -->
  <rect x="3" y="2" width="9" height="1" fill="#AC1C00"/>
  <!-- Row 3: Hair + face -->
  <rect x="3" y="3" width="2" height="1" fill="#6B3300"/>
  <rect x="5" y="3" width="1" height="1" fill="#FCA044"/>
  <rect x="6" y="3" width="2" height="1" fill="#6B3300"/>
  <rect x="8" y="3" width="3" height="1" fill="#FCA044"/>
  <!-- Row 4: Hair + face + eye -->
  <rect x="2" y="4" width="2" height="1" fill="#6B3300"/>
  <rect x="4" y="4" width="1" height="1" fill="#FCA044"/>
  <rect x="5" y="4" width="1" height="1" fill="#6B3300"/>
  <rect x="6" y="4" width="2" height="1" fill="#FCA044"/>
  <rect x="8" y="4" width="1" height="1" fill="#AC1C00"/>
  <rect x="9" y="4" width="2" height="1" fill="#FCA044"/>
  <!-- Row 5: Face + nose -->
  <rect x="2" y="5" width="3" height="1" fill="#FCA044"/>
  <rect x="5" y="5" width="3" height="1" fill="#FCA044"/>
  <rect x="8" y="5" width="1" height="1" fill="#FCA044"/>
  <rect x="9" y="5" width="2" height="1" fill="#FCA044"/>
  <rect x="11" y="5" width="1" height="1" fill="#FCA044"/>
  <!-- Row 6: Mustache -->
  <rect x="2" y="6" width="2" height="1" fill="#6B3300"/>
  <rect x="4" y="6" width="7" height="1" fill="#6B3300"/>
  <rect x="11" y="6" width="1" height="1" fill="#6B3300"/>
  <!-- Row 7: Shirt -->
  <rect x="3" y="7" width="1" height="1" fill="#AC1C00"/>
  <rect x="4" y="7" width="1" height="1" fill="#FCA044"/>
  <rect x="5" y="7" width="2" height="1" fill="#AC1C00"/>
  <rect x="7" y="7" width="3" height="1" fill="#FCA044"/>
  <rect x="10" y="7" width="1" height="1" fill="#AC1C00"/>
  <!-- Row 8: Arms + overalls -->
  <rect x="1" y="8" width="2" height="1" fill="#FCA044"/>
  <rect x="3" y="8" width="1" height="1" fill="#AC1C00"/>
  <rect x="4" y="8" width="1" height="1" fill="#FCA044"/>
  <rect x="5" y="8" width="5" height="1" fill="#2038EC"/>
  <rect x="10" y="8" width="1" height="1" fill="#AC1C00"/>
  <rect x="11" y="8" width="2" height="1" fill="#FCA044"/>
  <!-- Row 9: Arms + overalls -->
  <rect x="0" y="9" width="3" height="1" fill="#FCA044"/>
  <rect x="3" y="9" width="8" height="1" fill="#2038EC"/>
  <rect x="11" y="9" width="3" height="1" fill="#FCA044"/>
  <!-- Row 10: Overall straps + buttons -->
  <rect x="3" y="10" width="1" height="1" fill="#2038EC"/>
  <rect x="4" y="10" width="1" height="1" fill="#FCA044"/>
  <rect x="5" y="10" width="1" height="1" fill="#2038EC"/>
  <rect x="6" y="10" width="1" height="1" fill="#FCA044"/>
  <rect x="7" y="10" width="1" height="1" fill="#2038EC"/>
  <rect x="8" y="10" width="1" height="1" fill="#FCA044"/>
  <rect x="9" y="10" width="1" height="1" fill="#2038EC"/>
  <!-- Row 11: Overalls -->
  <rect x="3" y="11" width="8" height="1" fill="#2038EC"/>
  <!-- Row 12: Overalls + shoes -->
  <rect x="3" y="12" width="2" height="1" fill="#2038EC"/>
  <rect x="5" y="12" width="4" height="1" fill="#2038EC"/>
  <rect x="9" y="12" width="2" height="1" fill="#2038EC"/>
  <!-- Row 13: Shoes -->
  <rect x="2" y="13" width="3" height="1" fill="#6B3300"/>
  <rect x="9" y="13" width="3" height="1" fill="#6B3300"/>
  <!-- Row 14: Shoe bottom -->
  <rect x="1" y="14" width="4" height="1" fill="#6B3300"/>
  <rect x="9" y="14" width="4" height="1" fill="#6B3300"/>
</svg>
